<svg width="780" height="124" viewBox="0 0 780 124" fill="none" xmlns="http://www.w3.org/2000/svg">
<path d="M20.7929 47.6597H13.2602H5.72754V42.8517H18.6355C20.5342 40.1637 26.8355 32.9783 39.9115 32.9783C47.7049 32.9783 54.1715 37.1903 56.7742 40.529H65.6169C62.0915 35.725 53.5115 26.4277 39.9115 26.4277C21.5435 26.4277 15.0742 36.913 15.0102 37.0197L11.7409 34.0677C12.0449 32.5597 19.4049 21.6197 39.9115 21.6197C60.4782 21.6197 71.4035 39.7637 71.8155 40.5357L73.3115 44.337L54.6862 45.337L54.1355 44.3957C52.8262 42.1623 47.1342 37.7863 39.9115 37.7863C26.3915 37.7863 22.3355 46.1196 22.3355 45.6757L20.7929 47.6597Z" fill="#9041B5"/>
<path d="M39.9115 101C19.4049 101 12.0449 89.0587 11.7409 88.5507L15.0102 85.6C15.2689 86.0253 21.6809 96.192 39.9115 96.192C53.5595 96.192 62.1155 86.8947 65.6249 82.0907H56.7742C54.1702 85.4293 47.7049 89.6413 39.9115 89.6413C26.8355 89.6413 20.5329 82.456 18.6342 79.7667H5.72754V74.96H13.2602H20.7929L21.3355 75.944C21.5355 76.3 26.5022 84.8333 39.9115 84.8333C47.1342 84.8333 52.8262 80.456 54.1355 78.224L54.6862 77.2827H73.3102L70.8155 82.084C70.4035 82.856 60.4782 101 39.9115 101Z" fill="#9041B5"/>
<path d="M17.7319 69.312H3.21191V64.504H12.9239V58.244H3.21191V53.436H17.7319V69.312Z" fill="#9041B5"/>
<path d="M16.6816 35.3589C16.6816 37.4304 15.0032 39.1089 12.9316 39.1089C10.8601 39.1089 9.18164 37.4304 9.18164 35.3589C9.18164 33.2873 10.8601 31.6089 12.9316 31.6089C15.0032 31.6089 16.6816 33.2873 16.6816 35.3589Z" fill="#9041B5"/>
<path d="M10.1631 45.0713C10.1631 47.1428 8.48464 48.8213 6.41309 48.8213C4.34153 48.8213 2.66309 47.1428 2.66309 45.0713C2.66309 42.9997 4.34153 41.3213 6.41309 41.3213C8.48464 41.3213 10.1631 42.9997 10.1631 45.0713Z" fill="#9041B5"/>
<path d="M7.64648 55.6555C7.64648 57.7271 5.96804 59.4055 3.89648 59.4055C1.82493 59.4055 0.146484 57.7271 0.146484 55.6555C0.146484 53.584 1.82493 51.9055 3.89648 51.9055C5.96804 51.9055 7.64648 53.584 7.64648 55.6555Z" fill="#9041B5"/>
<path d="M7.5 66.8696C7.5 68.9412 5.82155 70.6196 3.75 70.6196C1.67845 70.6196 0 68.9412 0 66.8696C0 64.7981 1.67845 63.1196 3.75 63.1196C5.82155 63.1196 7.5 64.7981 7.5 66.8696Z" fill="#9041B5"/>
<path d="M9.64648 76.8696C9.64648 78.9412 7.96804 80.6196 5.89648 80.6196C3.82493 80.6196 2.14648 78.9412 2.14648 76.8696C2.14648 74.7981 3.82493 73.1196 5.89648 73.1196C7.96804 73.1196 9.64648 74.7981 9.64648 76.8696Z" fill="#9041B5"/>
<path d="M16.6465 86.8696C16.6465 88.9412 14.968 90.6196 12.8965 90.6196C10.8249 90.6196 9.14648 88.9412 9.14648 86.8696C9.14648 84.7981 10.8249 83.1196 12.8965 83.1196C14.968 83.1196 16.6465 84.7981 16.6465 86.8696Z" fill="#9041B5"/>
<path d="M115.4 100.2C136.9 100.2 152.1 83.6 152.1 64V63.8C152.1 44.1 137.1 27.8 115.6 27.8C94.1 27.8 78.9 44.4 78.9 64V64.2C78.9 83.9 93.9 100.2 115.4 100.2ZM115.6 88.8C101.6 88.8 91.8 77.6 91.8 64V63.8C91.8 50.2 101.5 39.2 115.4 39.2C129.4 39.2 139.2 50.4 139.2 64V64.2C139.2 77.8 129.5 88.8 115.6 88.8ZM159.961 99H172.061V49L193.961 81.8H194.361L216.461 48.8V99H228.761V29H215.661L194.361 62.1L173.061 29H159.961V99ZM268.477 100.1C286.777 100.1 298.577 89.6 298.577 68.7V29H286.277V69.3C286.277 82.2 279.577 88.7 268.677 88.7C257.577 88.7 250.977 81.9 250.977 68.8V29H238.677V69.3C238.677 89.6 250.377 100.1 268.477 100.1ZM308.461 99H320.561V49.2L359.161 99H369.461V29H357.361V77.4L319.861 29H308.461V99ZM381.165 99H393.465V29H381.165V99ZM405.203 99H431.303C453.303 99 468.503 83.7 468.503 64V63.8C468.503 44.1 453.303 29 431.303 29H405.203V99ZM431.303 40.2C446.003 40.2 455.603 50.3 455.603 64V64.2C455.603 77.9 446.003 87.8 431.303 87.8H417.503V40.2H431.303ZM465.543 99H478.143L485.343 82.1H518.443L525.543 99H538.543L507.743 28.5H496.343L465.543 99ZM489.843 71.2L501.843 43.2L513.943 71.2H489.843ZM541.551 99H555.25V84.786H541.551V99ZM563.65 99H591.769C614.429 99 630.085 83.241 630.085 62.95V62.744C630.085 42.453 614.429 26.9 591.769 26.9H563.65V99ZM591.769 41.217C604.644 41.217 613.502 50.178 613.502 62.95V63.156C613.502 75.928 604.644 84.683 591.769 84.683H579.512V41.217H591.769ZM643.189 99H698.088V84.889H658.948V69.748H692.938V55.637H658.948V41.011H697.573V26.9H643.189V99ZM734.13 99.515H748.138L777.287 26.9H760.189L741.34 77.679L722.491 26.9H704.981L734.13 99.515Z" fill="black"/>
</svg>
